<svg xmlns="http://www.w3.org/2000/svg" viewBox="0 0 180 120" role="img" aria-label="Sushi"><g fill="none" stroke="#191918" stroke-width="1.7" stroke-linecap="round" stroke-linejoin="round"><path d="m24 67 97-18 40 32-98 23ZM28 71l35 28 92-17"/><ellipse cx="62" cy="64" rx="14" ry="8"/><path d="M48 64v14c1 11 27 11 28-1V64"/><ellipse cx="62" cy="64" rx="6" ry="4"/><ellipse cx="96" cy="60" rx="14" ry="8"/><path d="M82 61v13c2 11 26 10 28-1V60"/><path d="m92 58 8 3-5 3Z"/><ellipse cx="91" cy="84" rx="13" ry="8"/><path d="M78 84v10c4 8 25 7 26-1V84"/><ellipse cx="91" cy="84" rx="5" ry="3"/><path d="m122 73 4-6 7 6-5 6Zm-12-48 48 25M108 31l48 22"/></g></svg>